<svg width="989" height="1198" viewBox="0 0 989 1198" fill="none" xmlns="http://www.w3.org/2000/svg">
<path d="M873 252.6C857.8 226 842.2 214.1 813.9 215.2C811 207.7 807.9 199.9 804.5 191.8C749.3 58.8 725.1 32 641.1 18.4C557.1 4.80001 528.6 -1.09998 446.1 0.500021C291.1 3.70002 180.7 56.1 156.5 91.9C145.5 108.2 132.7 164.4 123.6 231.2C86.4 211 32.3 214.5 12.2 258.5C-24.6 339.2 35.1 386.7 68.2 399.6C83.5 405.6 100.6 406 114.6 404.8C136.5 461.7 282.5 550.1 325.2 567.6C374.4 587.7 404.6 597.6 493.9 576C583.2 554.5 672.1 525.5 761.9 452.5C787.8 431.4 806.9 411.9 819.7 391.5C874.7 369.4 897.9 296 873 252.6Z" fill="white"/>
<path d="M950 1143.8C977 1137.4 993.7 1110.2 987 1083.3C987 1083.1 986.9 1083 986.9 1082.8C930.9 858.1 841.8 817.1 770.1 762.7C709.8 716.9 656.1 693.5 640.6 605.5C638.6 594.3 626.9 587.7 616.3 591.7C578.7 605.6 541.7 615.8 505.7 624.4C467.4 633.6 437.2 637.9 410.8 637.9H410.6C401 637.9 393 645.2 392.3 654.8C389.6 689.5 382.8 722.5 369.7 749.7C361.2 767.4 347.7 782.2 331.1 792.8C228.9 857.9 228.1 877.8 178 951C148.5 994.2 132.3 1052.6 119.3 1109.7C112.9 1137.8 131.5 1165.5 160 1170.2C422.1 1214 690.6 1205.2 950 1143.8Z" fill="white"/>
</svg>
